<svg width="439" height="164" viewBox="0 0 439 164" fill="none" xmlns="http://www.w3.org/2000/svg">
<path d="M145.778 41.6174V99.5253C145.778 122.509 126.545 141.143 102.824 141.143H98.4789L76.2922 162.625C75.4233 163.467 74.2213 164 72.8889 164C71.6579 164 70.5428 163.565 69.6883 162.835L69.3118 162.471L69.2973 162.457L47.2988 141.143H42.9397C19.2324 141.143 0 122.509 0 99.5253V41.6174C0 18.6338 19.2324 0 42.9542 0H102.824C126.545 0 145.778 18.6338 145.778 41.6174Z" fill="#93D800"/>
<path d="M28.0195 14.5V73.8799C28.0195 80.5333 29.7018 85.644 33.002 89.2793L33.3232 89.6064C36.6793 92.9405 41.211 94.6278 46.9756 94.6279C53.1921 94.6279 58.0023 92.8668 61.4707 89.3984C64.9326 85.8514 66.7002 80.7051 66.7002 73.8799C66.7002 67.415 64.7733 62.3939 60.9668 58.7529L60.958 58.7461V58.7451C57.2271 55.0145 52.2852 53.1319 46.0801 53.1318C40.8065 53.1318 36.2667 54.6363 32.4365 57.6338L31.6279 58.2666V45.4229L31.8887 45.2812C36.6571 42.6803 41.8172 41.3799 47.3604 41.3799C56.5229 41.38 64.1189 44.3666 70.1084 50.3535L70.6699 50.9131C71.7701 52.0392 72.7631 53.2337 73.6504 54.4951C74.5851 53.2013 75.6123 51.9922 76.7344 50.8701C79.5974 47.9218 82.9805 45.625 86.8779 43.9795C90.7816 42.246 94.9443 41.3799 99.3604 41.3799C103.779 41.3799 107.904 42.2467 111.727 43.9844H111.726C115.618 45.6295 118.996 47.9249 121.856 50.8701H121.857C124.806 53.8187 127.103 57.2871 128.748 61.2695H128.749C130.398 65.1749 131.22 69.3802 131.22 73.8799C131.22 78.3797 130.397 82.6267 128.75 86.6152C127.191 90.5119 124.98 93.9361 122.119 96.8838C119.257 99.8327 115.875 102.174 111.979 103.905L111.971 103.909V103.908C108.065 105.557 103.86 106.38 99.3604 106.38C93.8172 106.38 88.6571 105.079 83.8887 102.479L83.6279 102.337V89.5322L84.4238 90.1172C88.5105 93.1196 93.3535 94.6279 98.9756 94.6279C101.991 94.6279 104.699 94.1253 107.104 93.1299C109.603 92.0463 111.673 90.5934 113.326 88.7754L113.334 88.7666C115.076 86.9415 116.406 84.7829 117.322 82.2842C118.239 79.6986 118.7 76.8985 118.7 73.8799C118.7 70.8594 118.238 68.1027 117.322 65.6045L117.32 65.5996C116.401 63.0102 115.112 60.8076 113.454 58.9844C111.8 57.1646 109.771 55.7552 107.36 54.7578L107.351 54.7539L107.342 54.749C105.029 53.675 102.371 53.1319 99.3604 53.1318C96.4339 53.1318 93.7703 53.6323 91.3643 54.627C89.0371 55.6244 87.003 57.037 85.2578 58.8652C83.6042 60.6867 82.3168 62.8864 81.3994 65.4717L81.3975 65.4766C80.482 67.9733 80.0195 70.7724 80.0195 73.8799V134.284H67.5V99.7549C61.6345 104.176 54.4863 106.38 46.0801 106.38C37.0011 106.38 29.6114 103.435 23.959 97.5215C18.3052 91.6068 15.5 83.7077 15.5 73.8799V14.5H28.0195Z" fill="white" stroke="white"/>
<path d="M184.914 66.5609C181.29 66.5609 178.066 65.6734 175.241 63.8984C172.477 62.0623 170.634 59.6447 169.713 56.6456L170.727 53.6159V59.308C170.727 61.5726 170.143 63.317 168.976 64.5411C167.809 65.7652 166.12 66.3772 163.909 66.3772C161.698 66.3772 159.979 65.7652 158.75 64.5411C157.583 63.317 157 61.5726 157 59.308V7.06922C157 4.74342 157.583 2.99907 158.75 1.83617C159.979 0.612055 161.729 0 164.001 0C166.212 0 167.901 0.612055 169.068 1.83617C170.297 2.99907 170.911 4.74342 170.911 7.06922V28.8277H169.805C170.788 26.0735 172.661 23.8395 175.425 22.1257C178.189 20.412 181.351 19.5551 184.914 19.5551C188.906 19.5551 192.376 20.5038 195.324 22.4012C198.272 24.2985 200.575 26.9916 202.233 30.4803C203.891 33.969 204.72 38.131 204.72 42.9662C204.72 47.8014 203.891 51.994 202.233 55.5439C200.575 59.0938 198.241 61.8174 195.232 63.7148C192.284 65.6122 188.844 66.5609 184.914 66.5609ZM180.768 56.1865C182.733 56.1865 184.453 55.6969 185.927 54.7176C187.462 53.7383 188.629 52.3 189.428 50.4026C190.288 48.4441 190.717 45.9652 190.717 42.9662C190.717 38.4982 189.796 35.2237 187.954 33.1427C186.111 31.0005 183.716 29.9294 180.768 29.9294C178.803 29.9294 177.052 30.3885 175.517 31.3066C174.043 32.2246 172.876 33.663 172.016 35.6215C171.156 37.5189 170.727 39.9671 170.727 42.9662C170.727 47.4342 171.648 50.7699 173.49 52.9733C175.333 55.1155 177.759 56.1865 180.768 56.1865Z" fill="white"/>
<path d="M236.72 66.5609C231.377 66.5609 226.77 65.6122 222.901 63.7148C219.093 61.7562 216.145 59.0326 214.057 55.5439C212.031 51.994 211.017 47.832 211.017 43.058C211.017 38.4064 212 34.3362 213.965 30.8475C215.93 27.2976 218.663 24.5434 222.164 22.5848C225.726 20.565 229.749 19.5551 234.232 19.5551C237.487 19.5551 240.435 20.106 243.076 21.2077C245.717 22.2482 247.99 23.7783 249.894 25.7981C251.797 27.7566 253.241 30.1743 254.223 33.0509C255.206 35.8664 255.697 39.0184 255.697 42.5071C255.697 43.67 255.329 44.5575 254.592 45.1696C253.855 45.7204 252.78 45.9958 251.368 45.9958H222.441V38.8348H245.656L244.182 40.1201C244.182 37.6107 243.813 35.5297 243.076 33.8772C242.339 32.1634 241.265 30.8781 239.852 30.0212C238.501 29.1644 236.812 28.7359 234.785 28.7359C232.513 28.7359 230.578 29.2562 228.981 30.2967C227.385 31.3372 226.156 32.8367 225.296 34.7953C224.437 36.7538 224.007 39.1102 224.007 41.8645V42.5989C224.007 47.2506 225.081 50.6781 227.231 52.8815C229.442 55.0849 232.697 56.1865 236.996 56.1865C238.47 56.1865 240.159 56.0029 242.063 55.6357C243.967 55.2685 245.748 54.687 247.406 53.8913C248.819 53.2181 250.078 53.0039 251.183 53.2487C252.289 53.4323 253.149 53.9219 253.763 54.7176C254.377 55.5133 254.715 56.4314 254.776 57.4719C254.899 58.5124 254.684 59.5528 254.131 60.5933C253.579 61.5726 252.657 62.3989 251.368 63.0722C249.279 64.2351 246.915 65.0919 244.274 65.6428C241.695 66.2548 239.176 66.5609 236.72 66.5609Z" fill="white"/>
<path d="M270.974 66.3772C268.702 66.3772 266.951 65.7652 265.723 64.5411C264.556 63.317 263.973 61.5726 263.973 59.308V26.7162C263.973 24.4516 264.556 22.7378 265.723 21.5749C266.951 20.3508 268.64 19.7387 270.79 19.7387C273.001 19.7387 274.69 20.3508 275.857 21.5749C277.024 22.7378 277.607 24.4516 277.607 26.7162V32.5919L276.594 28.9195C277.822 26.1041 279.726 23.8395 282.305 22.1257C284.885 20.412 287.925 19.5551 291.426 19.5551C294.926 19.5551 297.844 20.3814 300.178 22.0339C302.511 23.6865 304.17 26.2265 305.152 29.654H303.862C305.214 26.5325 307.271 24.0843 310.035 22.3094C312.86 20.4732 316.084 19.5551 319.708 19.5551C323.209 19.5551 326.064 20.259 328.275 21.6667C330.548 23.0132 332.237 25.0942 333.342 27.9097C334.448 30.6639 335 34.1832 335 38.4676V59.308C335 61.5726 334.386 63.317 333.158 64.5411C331.991 65.7652 330.302 66.3772 328.091 66.3772C325.819 66.3772 324.068 65.7652 322.84 64.5411C321.673 63.317 321.09 61.5726 321.09 59.308V38.9266C321.09 35.9276 320.598 33.7548 319.616 32.4083C318.694 31.0005 317.098 30.2967 314.825 30.2967C312.184 30.2967 310.127 31.2147 308.653 33.0509C307.179 34.8871 306.442 37.4883 306.442 40.8546V59.308C306.442 61.5726 305.828 63.317 304.599 64.5411C303.433 65.7652 301.744 66.3772 299.533 66.3772C297.322 66.3772 295.602 65.7652 294.374 64.5411C293.145 63.317 292.531 61.5726 292.531 59.308V38.9266C292.531 35.9276 292.04 33.7548 291.057 32.4083C290.136 31.0005 288.539 30.2967 286.267 30.2967C283.626 30.2967 281.568 31.2147 280.094 33.0509C278.62 34.8871 277.883 37.4883 277.883 40.8546V59.308C277.883 64.0208 275.58 66.3772 270.974 66.3772Z" fill="white"/>
<path d="M164.001 141C161.729 141 159.979 140.388 158.75 139.164C157.583 138.001 157 136.257 157 133.931V84.8134C157 82.5488 157.583 80.8351 158.75 79.6722C159.979 78.4481 161.668 77.836 163.817 77.836C166.09 77.836 167.809 78.4481 168.976 79.6722C170.143 80.8351 170.727 82.5488 170.727 84.8134V91.0564L169.713 87.4759C170.634 84.538 172.477 82.1816 175.241 80.4067C178.066 78.5705 181.29 77.6524 184.914 77.6524C188.844 77.6524 192.284 78.6011 195.232 80.4985C198.241 82.3958 200.575 85.0889 202.233 88.5776C203.891 92.0663 204.72 96.2283 204.72 101.063C204.72 105.899 203.891 110.091 202.233 113.641C200.575 117.191 198.272 119.915 195.324 121.812C192.376 123.709 188.906 124.658 184.914 124.658C181.351 124.658 178.189 123.801 175.425 122.088C172.661 120.313 170.788 118.017 169.805 115.202H170.911V133.931C170.911 136.257 170.297 138.001 169.068 139.164C167.901 140.388 166.212 141 164.001 141ZM180.768 114.284C182.733 114.284 184.453 113.794 185.927 112.815C187.462 111.836 188.629 110.397 189.428 108.5C190.288 106.541 190.717 104.063 190.717 101.063C190.717 96.5955 189.796 93.321 187.954 91.24C186.111 89.0978 183.716 88.0267 180.768 88.0267C178.803 88.0267 177.052 88.4858 175.517 89.4039C174.043 90.3219 172.876 91.7603 172.016 93.7188C171.156 95.6162 170.727 98.0644 170.727 101.063C170.727 105.531 171.648 108.867 173.49 111.071C175.333 113.213 177.759 114.284 180.768 114.284Z" fill="white"/>
<path d="M236.72 124.658C231.377 124.658 226.77 123.709 222.901 121.812C219.093 119.854 216.145 117.13 214.057 113.641C212.031 110.091 211.017 105.929 211.017 101.155C211.017 96.5037 212 92.4335 213.965 88.9448C215.93 85.3949 218.663 82.6407 222.164 80.6821C225.726 78.6623 229.749 77.6524 234.232 77.6524C237.487 77.6524 240.435 78.2033 243.076 79.305C245.717 80.3455 247.99 81.8756 249.894 83.8954C251.797 85.8539 253.241 88.2716 254.223 91.1482C255.206 93.9637 255.697 97.1157 255.697 100.604C255.697 101.767 255.329 102.655 254.592 103.267C253.855 103.818 252.78 104.093 251.368 104.093H222.441V96.9321H245.656L244.182 98.2174C244.182 95.708 243.813 93.627 243.076 91.9745C242.339 90.2607 241.265 88.9754 239.852 88.1185C238.501 87.2617 236.812 86.8332 234.785 86.8332C232.513 86.8332 230.578 87.3535 228.981 88.394C227.385 89.4345 226.156 90.934 225.296 92.8926C224.437 94.8511 224.007 97.2075 224.007 99.9618V100.696C224.007 105.348 225.081 108.775 227.231 110.979C229.442 113.182 232.697 114.284 236.996 114.284C238.47 114.284 240.159 114.1 242.063 113.733C243.967 113.366 245.748 112.784 247.406 111.989C248.819 111.315 250.078 111.101 251.183 111.346C252.289 111.53 253.149 112.019 253.763 112.815C254.377 113.611 254.715 114.529 254.776 115.569C254.899 116.61 254.684 117.65 254.131 118.691C253.579 119.67 252.657 120.496 251.368 121.169C249.279 122.332 246.915 123.189 244.274 123.74C241.695 124.352 239.176 124.658 236.72 124.658Z" fill="white"/>
<path d="M270.974 124.475C268.64 124.475 266.859 123.862 265.631 122.638C264.403 121.414 263.788 119.67 263.788 117.405V84.8134C263.788 82.5488 264.372 80.8351 265.539 79.6722C266.767 78.4481 268.456 77.836 270.606 77.836C272.817 77.836 274.506 78.4481 275.672 79.6722C276.839 80.8351 277.423 82.5488 277.423 84.8134V89.5875H276.502C277.239 85.9151 278.866 83.0691 281.384 81.0493C283.902 79.0295 287.157 77.8972 291.149 77.6524C292.685 77.53 293.852 77.9278 294.65 78.8459C295.51 79.7028 295.971 81.1411 296.032 83.1609C296.155 85.0583 295.756 86.5578 294.834 87.6595C293.974 88.7612 292.501 89.4345 290.412 89.6793L288.294 89.8629C284.793 90.1689 282.183 91.1788 280.463 92.8926C278.805 94.6063 277.976 97.0851 277.976 100.329V117.405C277.976 119.67 277.361 121.414 276.133 122.638C274.966 123.862 273.247 124.475 270.974 124.475Z" fill="white"/>
<path d="M326.655 124.658C322.417 124.658 318.855 123.954 315.968 122.547C313.143 121.139 311.024 119.088 309.612 116.395C308.26 113.702 307.585 110.305 307.585 106.205V88.9448H303.716C301.996 88.9448 300.645 88.4858 299.662 87.5677C298.741 86.6496 298.28 85.3949 298.28 83.8036C298.28 82.0898 298.741 80.8045 299.662 79.9476C300.645 79.0295 301.996 78.5705 303.716 78.5705H307.585V71.5931C307.585 69.2673 308.199 67.5229 309.427 66.36C310.656 65.1359 312.375 64.5239 314.586 64.5239C316.859 64.5239 318.578 65.1359 319.745 66.36C320.912 67.5229 321.496 69.2673 321.496 71.5931V78.5705H330.247C331.967 78.5705 333.288 79.0295 334.209 79.9476C335.13 80.8045 335.591 82.0898 335.591 83.8036C335.591 85.3949 335.13 86.6496 334.209 87.5677C333.288 88.4858 331.967 88.9448 330.247 88.9448H321.496V105.654C321.496 108.225 322.079 110.152 323.246 111.438C324.474 112.723 326.409 113.366 329.05 113.366C329.971 113.366 330.831 113.274 331.629 113.09C332.428 112.907 333.165 112.784 333.84 112.723C334.7 112.662 335.406 112.937 335.959 113.549C336.512 114.1 336.788 115.355 336.788 117.314C336.788 118.782 336.543 120.068 336.051 121.169C335.56 122.271 334.7 123.067 333.472 123.556C332.673 123.862 331.568 124.107 330.155 124.291C328.804 124.536 327.637 124.658 326.655 124.658Z" fill="white"/>
<path d="M350.139 124.383C347.867 124.383 346.116 123.74 344.888 122.455C343.721 121.108 343.138 119.241 343.138 116.854V85.4561C343.138 83.0079 343.721 81.1411 344.888 79.8558C346.116 78.5093 347.867 77.836 350.139 77.836C352.35 77.836 354.039 78.5093 355.206 79.8558C356.434 81.1411 357.048 83.0079 357.048 85.4561V116.854C357.048 119.241 356.465 121.108 355.298 122.455C354.131 123.74 352.411 124.383 350.139 124.383ZM350.139 70.3078C347.56 70.3078 345.564 69.7263 344.151 68.5634C342.8 67.3393 342.124 65.6256 342.124 63.4222C342.124 61.1576 342.8 59.4438 344.151 58.2809C345.564 57.0568 347.56 56.4448 350.139 56.4448C352.719 56.4448 354.684 57.0568 356.035 58.2809C357.386 59.4438 358.062 61.1576 358.062 63.4222C358.062 65.6256 357.386 67.3393 356.035 68.5634C354.684 69.7263 352.719 70.3078 350.139 70.3078Z" fill="white"/>
<path d="M374.974 124.475C372.701 124.475 370.951 123.862 369.723 122.638C368.556 121.414 367.972 119.67 367.972 117.405V84.8134C367.972 82.5488 368.556 80.8351 369.723 79.6722C370.951 78.4481 372.64 77.836 374.789 77.836C377 77.836 378.689 78.4481 379.856 79.6722C381.023 80.8351 381.607 82.5488 381.607 84.8134V90.6892L380.593 87.0168C381.822 84.2014 383.725 81.9368 386.305 80.223C388.884 78.5093 391.925 77.6524 395.425 77.6524C398.926 77.6524 401.843 78.4787 404.177 80.1312C406.511 81.7838 408.169 84.3238 409.152 87.7513H407.862C409.213 84.6298 411.271 82.1816 414.034 80.4067C416.859 78.5705 420.084 77.6524 423.707 77.6524C427.208 77.6524 430.064 78.3563 432.275 79.764C434.547 81.1105 436.236 83.1915 437.342 86.007C438.447 88.7612 439 92.2805 439 96.5649V117.405C439 119.67 438.386 121.414 437.158 122.638C435.991 123.862 434.302 124.475 432.091 124.475C429.818 124.475 428.068 123.862 426.84 122.638C425.673 121.414 425.089 119.67 425.089 117.405V97.0239C425.089 94.0249 424.598 91.8521 423.615 90.5056C422.694 89.0978 421.097 88.394 418.825 88.394C416.184 88.394 414.126 89.312 412.652 91.1482C411.178 92.9844 410.442 95.5856 410.442 98.9519V117.405C410.442 119.67 409.827 121.414 408.599 122.638C407.432 123.862 405.743 124.475 403.532 124.475C401.321 124.475 399.602 123.862 398.373 122.638C397.145 121.414 396.531 119.67 396.531 117.405V97.0239C396.531 94.0249 396.039 91.8521 395.057 90.5056C394.136 89.0978 392.539 88.394 390.266 88.394C387.625 88.394 385.568 89.312 384.094 91.1482C382.62 92.9844 381.883 95.5856 381.883 98.9519V117.405C381.883 122.118 379.58 124.475 374.974 124.475Z" fill="white"/>
</svg>
