<svg width="54" height="60" viewBox="0 0 54 60" fill="none" xmlns="http://www.w3.org/2000/svg">
<path d="M53.3333 15.2259V36.4117C53.3333 44.8203 46.2971 51.6376 37.6184 51.6376H36.0289L27.9118 59.4969C27.5939 59.8049 27.1541 60 26.6667 60C26.2163 60 25.8083 59.8409 25.4957 59.5739L25.358 59.4405L25.3527 59.4353L17.3045 51.6376H15.7096C7.03623 51.6376 0 44.8203 0 36.4117V15.2259C0 6.81725 7.03623 0 15.7149 0H37.6184C46.2971 0 53.3333 6.81725 53.3333 15.2259Z" fill="#93D800"/>
<path d="M10.5685 4.98792V27.0289C10.5685 29.4119 11.1705 31.197 12.3107 32.4518C13.4776 33.6712 15.0824 34.3033 17.1867 34.3033C19.3984 34.3033 21.0693 33.6784 22.2648 32.483C23.4543 31.2628 24.0851 29.4711 24.0851 27.0289C24.085 24.7311 23.4031 22.9841 22.0861 21.7242L22.0773 21.7164C20.7815 20.4208 19.0594 19.7555 16.8585 19.7555C14.9941 19.7555 13.4037 20.2861 12.0626 21.3356L11.2541 21.9674V16.4303L11.5148 16.2877C13.3069 15.3102 15.2475 14.8219 17.3273 14.8219C20.7538 14.822 23.6147 15.9419 25.8703 18.1949L26.0822 18.4059C26.3943 18.7254 26.683 19.0597 26.9494 19.4078C27.2279 19.0516 27.5247 18.7119 27.8439 18.3922C28.9202 17.2833 30.1914 16.4196 31.6525 15.8014C33.1236 15.1476 34.6921 14.8219 36.3517 14.8219C38.0111 14.822 39.5649 15.1479 41.007 15.8033H41.006C42.4658 16.4214 43.7362 17.2841 44.8117 18.3922H44.8107C45.9171 19.4999 46.7783 20.8015 47.3947 22.2926H47.3957C48.0163 23.7627 48.3243 25.3434 48.3244 27.0289C48.3244 28.7128 48.0154 30.3056 47.3976 31.8033L47.3986 31.8043C46.813 33.2683 45.9821 34.5573 44.9054 35.6666C43.8289 36.7757 42.5577 37.655 41.0968 38.3043L41.088 38.3073C39.6178 38.928 38.0374 39.2369 36.3517 39.2369C34.272 39.2369 32.3313 38.7486 30.5392 37.7711L30.2785 37.6285V32.1295L31.0744 32.7145C32.5095 33.7689 34.2145 34.3033 36.2111 34.3033C37.2753 34.3033 38.2205 34.1257 39.0548 33.7819C39.9329 33.4014 40.6536 32.8946 41.2257 32.2653L41.2345 32.2565C41.8402 31.6219 42.3042 30.8701 42.6251 29.9948C42.9466 29.0868 43.1095 28.0993 43.1095 27.0289C43.1095 25.9566 42.9459 24.9857 42.6251 24.111L42.6232 24.1061C42.2996 23.1941 41.8478 22.4254 41.2726 21.7926C40.7007 21.1636 39.9982 20.6747 39.1574 20.3268L39.1476 20.3229L39.1378 20.318C38.3399 19.9475 37.4147 19.7556 36.3517 19.7555C35.3171 19.7555 34.3832 19.9331 33.5451 20.2799L33.5441 20.2789C32.7346 20.6268 32.0283 21.1193 31.421 21.7555C30.8498 22.3865 30.4013 23.1517 30.0792 24.0592L30.0773 24.0641C29.7571 24.9374 29.593 25.9236 29.5929 27.0289V49.4459H24.3781V37.11C22.2709 38.5312 19.7579 39.2369 16.8585 39.2369C13.4616 39.2369 10.6713 38.1315 8.53628 35.8981C6.39994 33.6631 5.35366 30.6878 5.35366 27.0289V4.98792H10.5685Z" fill="white" stroke="white"/>
</svg>
