<svg width="386" height="80" viewBox="0 0 386 80" fill="none" xmlns="http://www.w3.org/2000/svg">
<path d="M0 10C0 4.47715 4.515 -1.25159e-05 10.0378 9.59882e-06C67.9046 0.00024131 80.5421 0.00587722 127.385 0.136558C131.023 0.146707 134.367 2.14593 136.207 5.28424C148.968 27.0524 164.329 43 193 43C221.433 43 238.521 27.7398 249.89 5.806C251.696 2.32003 255.249 2.41205e-05 259.175 5.57761e-05C305.136 0.000426323 318.644 4.54372e-05 375.963 4.06891e-06C381.486 8.29604e-08 386 4.47715 386 10V70C386 75.5229 381.523 80 376 80H10C4.47716 80 0 75.5229 0 70V10Z" fill="white"/>
</svg>
